<?xml version="1.0" standalone="no"?>
<!DOCTYPE svg PUBLIC "-//W3C//DTD SVG 20010904//EN"
 "http://www.w3.org/TR/2001/REC-SVG-20010904/DTD/svg10.dtd">
<svg version="1.0" xmlns="http://www.w3.org/2000/svg"
 width="2560.000000pt" height="2560.000000pt" viewBox="0 0 2560.000000 2560.000000"
 preserveAspectRatio="xMidYMid meet">

<g transform="translate(0.000000,2560.000000) scale(0.100000,-0.100000)"
fill="#000000" stroke="none">
<path d="M7965 22927 c-45 -70 -155 -431 -204 -672 -53 -258 -65 -397 -58
-663 6 -232 25 -359 83 -556 114 -386 375 -762 731 -1049 82 -67 365 -259 371
-252 2 2 -43 62 -99 133 -417 520 -665 982 -750 1392 -30 149 -39 446 -32
1076 7 603 3 659 -42 591z"/>
<path d="M9012 21166 c-29 -60 -32 -178 -7 -300 22 -105 61 -199 120 -290 9
-14 13 -31 9 -37 -4 -8 -3 -9 5 -5 13 8 68 -52 63 -69 -2 -5 0 -7 3 -3 4 4 33
-15 64 -43 70 -63 171 -123 264 -157 40 -14 85 -37 102 -51 16 -14 27 -22 23
-17 -4 4 -1 15 7 23 13 12 33 6 152 -47 767 -342 1319 -435 2027 -344 65 8
120 13 123 11 2 -3 -40 -19 -94 -37 -54 -18 -199 -72 -323 -120 -124 -49 -268
-100 -320 -114 -129 -35 -286 -52 -373 -39 -37 5 -69 7 -72 4 -3 -2 9 -20 27
-38 17 -18 29 -33 25 -33 -3 0 4 -11 17 -25 34 -37 52 -84 39 -103 -25 -41
-274 -57 -395 -27 -37 10 -65 21 -62 26 3 5 -1 6 -9 3 -8 -3 -64 20 -123 51
-60 31 -127 66 -149 77 -22 11 -42 23 -45 27 -5 5 -28 19 -100 56 -165 85
-346 135 -491 135 -105 0 -110 -8 -33 -54 182 -107 481 -240 719 -319 273 -91
486 -132 760 -147 99 -6 214 -17 255 -26 l75 -16 70 35 c39 19 120 58 180 88
61 30 112 57 115 60 3 3 15 11 28 18 19 10 27 10 40 -1 15 -11 15 -11 4 3 -11
14 -8 18 18 29 16 7 30 17 30 22 0 6 7 7 16 4 8 -3 12 -2 9 4 -3 6 -2 10 3 10
5 0 33 16 61 35 28 19 52 35 55 35 2 0 17 11 32 24 115 99 177 146 185 141 5
-4 6 -11 3 -17 -4 -7 -2 -8 5 -4 9 6 9 11 0 22 -9 11 -5 21 17 47 16 19 34 42
40 53 10 18 14 17 85 -16 41 -19 83 -33 93 -32 36 2 59 38 68 102 4 34 20 90
34 123 72 173 82 251 43 337 -50 110 -121 142 -228 101 l-48 -18 -21 132 c-12
72 -31 158 -43 190 -19 52 -80 135 -99 135 -8 0 -64 -193 -84 -295 -26 -128
-39 -286 -32 -405 3 -63 9 -125 12 -136 5 -20 3 -21 -58 -17 -603 39 -1125
207 -1518 489 -52 38 -111 82 -130 98 -57 49 -200 199 -218 229 -19 31 -26 32
-66 12 -15 -8 -32 -13 -36 -10 -5 3 -11 1 -15 -5 -21 -34 -268 19 -334 73 -7
6 -19 12 -26 13 -7 1 -26 11 -42 21 -15 11 -55 38 -88 59 -139 90 -254 177
-248 187 3 6 1 7 -6 3 -6 -4 -26 3 -44 16 -17 13 -45 30 -62 40 -16 9 -29 21
-28 26 4 20 -45 9 -55 -12z m3238 -866 c0 -5 -5 -10 -11 -10 -5 0 -7 5 -4 10
3 6 8 10 11 10 2 0 4 -4 4 -10z m-2600 -80 c0 -5 -2 -10 -4 -10 -3 0 -8 5 -11
10 -3 6 -1 10 4 10 6 0 11 -4 11 -10z"/>
<path d="M9605 20170 c-3 -6 1 -7 9 -4 18 7 21 14 7 14 -6 0 -13 -4 -16 -10z"/>
<path d="M12226 19717 c3 -10 9 -15 12 -12 3 3 0 11 -7 18 -10 9 -11 8 -5 -6z"/>
<path d="M12619 19453 c-379 -367 -549 -614 -553 -802 -1 -69 32 -145 107
-244 29 -38 51 -74 49 -79 -1 -5 1 -7 6 -4 11 6 54 -38 47 -47 -3 -4 -2 -5 1
-2 11 8 65 -36 58 -47 -4 -6 -3 -8 3 -5 14 9 106 -90 97 -104 -4 -8 -3 -9 4
-5 19 11 44 -41 45 -92 0 -33 -9 -65 -32 -109 -17 -34 -31 -64 -31 -66 0 -3
-8 -22 -17 -43 -9 -22 -17 -41 -17 -44 -1 -8 -36 -92 -48 -114 -16 -31 -20
-86 -6 -80 17 7 187 205 237 274 92 130 84 85 136 740 19 245 37 461 40 480 4
32 45 510 45 531 0 22 -28 0 -171 -138z"/>
<path d="M14163 18978 c4 -24 13 -88 21 -143 21 -137 54 -473 62 -627 6 -102
10 -128 21 -128 8 0 61 13 117 29 55 16 209 57 341 91 227 58 254 66 244 73
-136 102 -189 143 -259 202 -47 39 -94 76 -104 82 -35 19 -268 257 -353 361
-46 56 -87 102 -90 102 -3 0 -3 -19 0 -42z"/>
<path d="M15609 17671 c-165 -106 -349 -240 -505 -368 -155 -127 -531 -502
-540 -537 -8 -32 8 -149 51 -391 149 -827 464 -1343 975 -1600 220 -111 453
-157 788 -156 215 1 264 9 442 76 313 118 514 314 441 432 -48 77 -233 70
-467 -18 -58 -21 -108 -39 -112 -39 -5 0 1 71 11 158 28 222 31 840 4 1012
-45 295 -100 488 -197 685 -112 230 -239 396 -450 590 -92 84 -289 235 -308
235 -5 0 -65 -36 -133 -79z"/>
<path d="M10330 16154 c0 -6 13 -76 30 -155 16 -79 39 -207 50 -284 11 -77 33
-239 50 -360 77 -548 159 -855 315 -1182 104 -219 245 -433 352 -534 68 -64
183 -138 274 -175 55 -22 68 -24 100 -15 53 16 119 67 135 106 37 89 8 157
-116 267 -401 359 -666 725 -840 1162 -82 206 -129 375 -204 727 -48 227 -88
360 -124 419 -12 19 -22 30 -22 24z"/>
</g>
</svg>
